<svg width="18" height="16" viewBox="0 0 18 16" fill="none" xmlns="http://www.w3.org/2000/svg">
<path d="M11.7255 11.2306L16.9013 15.8324C16.9611 15.8856 17.032 15.9277 17.1101 15.9565C17.1882 15.9852 17.2719 16 17.3564 16C17.4409 16 17.5246 15.9852 17.6027 15.9565C17.6808 15.9277 17.7517 15.8856 17.8115 15.8324C17.8713 15.7793 17.9187 15.7162 17.951 15.6468C17.9834 15.5774 18 15.503 18 15.4279C18 15.3528 17.9834 15.2784 17.951 15.209C17.9187 15.1396 17.8713 15.0765 17.8115 15.0234L1.09871 0.167564C1.03895 0.11444 0.967997 0.0722991 0.88991 0.0435484C0.811824 0.0147977 0.728131 5.59755e-10 0.643611 0C0.559091 -5.59755e-10 0.475398 0.0147977 0.397312 0.0435484C0.319225 0.0722991 0.248274 0.11444 0.188509 0.167564C0.128745 0.220688 0.0813364 0.283756 0.048992 0.353166C0.0166475 0.422576 -6.29724e-10 0.49697 0 0.572099C6.29725e-10 0.647228 0.0166475 0.721621 0.048992 0.791032C0.0813364 0.860442 0.128745 0.923509 0.188509 0.976634L4.34099 4.66773C3.77595 5.02375 3.26742 5.44579 2.82913 5.92247C2.2087 6.59916 1.72303 7.36518 1.39311 8.18741C1.36612 8.25712 1.33269 8.35311 1.33269 8.35311L1.30955 8.42396C1.30955 8.42396 1.21185 8.99191 1.76594 9.12219C1.93062 9.16088 2.10584 9.13988 2.25312 9.06382C2.4004 8.98775 2.5077 8.86284 2.55144 8.71651L2.55272 8.71308L2.56301 8.68451L2.60801 8.55995C2.88821 7.86575 3.29902 7.2189 3.8229 6.64698C4.23561 6.19778 4.72287 5.80705 5.26791 5.48823L7.29658 7.29149C6.8872 7.51957 6.54093 7.82676 6.28354 8.1902C6.02614 8.55364 5.86424 8.96399 5.80987 9.39073C5.75551 9.81746 5.81008 10.2496 5.96952 10.655C6.12896 11.0604 6.38918 11.4286 6.73082 11.7323C7.07246 12.036 7.48672 12.2673 7.9428 12.409C8.39888 12.5508 8.88503 12.5993 9.36511 12.5509C9.84519 12.5026 10.3068 12.3587 10.7157 12.1299C11.1246 11.9011 11.4702 11.5933 11.7268 11.2294M10.7754 10.3838C10.6522 10.6421 10.4595 10.8696 10.2142 11.0463C9.96895 11.2229 9.67866 11.3434 9.36881 11.397C9.05896 11.4507 8.73903 11.4359 8.43711 11.354C8.13519 11.2721 7.86051 11.1255 7.63718 10.9272C7.41385 10.7289 7.24871 10.4849 7.15625 10.2166C7.06378 9.94831 7.04683 9.66395 7.10688 9.38847C7.16693 9.113 7.30214 8.85484 7.50064 8.63666C7.69914 8.41848 7.95486 8.24695 8.24535 8.13713L10.7754 10.3838ZM6.8402 3.65753L7.9381 4.63345C8.27235 4.59231 8.62632 4.57174 9 4.57174C11.6278 4.57174 13.2245 5.61393 14.1784 6.64812C14.7023 7.22004 15.1131 7.8669 15.3933 8.56109C15.4147 8.61671 15.4297 8.65823 15.4383 8.68565L15.4486 8.71422V8.71765L15.4498 8.71879C15.4974 8.86141 15.6057 8.98191 15.7516 9.05469C15.8976 9.12747 16.0697 9.14679 16.2314 9.10855C16.3931 9.07031 16.5317 8.97751 16.6176 8.84989C16.7036 8.72227 16.7302 8.56987 16.6917 8.42511V8.42168L16.6904 8.41711L16.6853 8.40225C16.6635 8.32994 16.6378 8.25862 16.6082 8.18855C16.2783 7.36633 15.7926 6.60031 15.1722 5.92362C14.0203 4.67344 12.0803 3.42898 9.00257 3.42898C8.20807 3.42898 7.48942 3.51126 6.84148 3.65639" fill="white"/>
</svg>
