<svg width="16" height="12" viewBox="0 0 16 12" fill="none" xmlns="http://www.w3.org/2000/svg">
<path d="M13.5006 12.0007C13.435 12.0008 13.3699 11.9879 13.3093 11.9628C13.2486 11.9376 13.1935 11.9007 13.1472 11.8542L2.14719 0.854151C2.05738 0.75962 2.00805 0.633745 2.00972 0.503365C2.01139 0.372984 2.06392 0.248413 2.15612 0.156212C2.24832 0.0640114 2.37289 0.0114759 2.50327 0.00980665C2.63365 0.00813736 2.75953 0.0574665 2.85406 0.147276L13.8541 11.1473C13.9239 11.2172 13.9715 11.3063 13.9908 11.4032C14.0101 11.5002 14.0002 11.6007 13.9623 11.692C13.9245 11.7834 13.8605 11.8614 13.7783 11.9164C13.6961 11.9713 13.5995 12.0007 13.5006 12.0007ZM7.99 10.0007C6.69344 10.0007 5.44312 9.61696 4.27375 8.86009C3.20906 8.17259 2.25062 7.1879 1.50187 6.01634V6.01384C2.125 5.12103 2.8075 4.36603 3.54062 3.75728C3.54726 3.75173 3.55266 3.74487 3.55651 3.73713C3.56036 3.72939 3.56255 3.72093 3.56297 3.7123C3.56338 3.70366 3.56199 3.69504 3.5589 3.68697C3.55581 3.67889 3.55107 3.67155 3.545 3.6654L2.9225 3.04384C2.91144 3.03269 2.89658 3.02611 2.88089 3.02541C2.86519 3.02472 2.84982 3.02996 2.83781 3.04009C2.05906 3.69634 1.33625 4.50134 0.679061 5.44384C0.565994 5.60612 0.503723 5.79835 0.500162 5.99611C0.496601 6.19387 0.55191 6.38822 0.659061 6.55446C1.48437 7.84603 2.54656 8.93384 3.73031 9.69978C5.06312 10.5632 6.4975 11.0007 7.99 11.0007C8.79561 10.9982 9.59552 10.8655 10.3587 10.6076C10.3688 10.6042 10.3778 10.5982 10.385 10.5904C10.3921 10.5825 10.3971 10.5729 10.3995 10.5626C10.402 10.5522 10.4017 10.5414 10.3988 10.5312C10.3958 10.521 10.3903 10.5117 10.3828 10.5042L9.70844 9.82978C9.69291 9.81463 9.67371 9.80379 9.65273 9.79831C9.63174 9.79283 9.6097 9.7929 9.58875 9.79853C9.06648 9.93301 8.52931 10.0009 7.99 10.0007ZM15.3394 5.45696C14.5125 4.17821 13.4397 3.09196 12.2372 2.3154C10.9069 1.4554 9.43812 1.00071 7.99 1.00071C7.19292 1.0021 6.40177 1.13764 5.64969 1.40165C5.63967 1.40514 5.6307 1.41112 5.62363 1.41903C5.61656 1.42694 5.61162 1.43652 5.60927 1.44687C5.60693 1.45722 5.60725 1.46799 5.61023 1.47818C5.6132 1.48836 5.61871 1.49762 5.62625 1.50509L6.29969 2.17853C6.31536 2.19394 6.33483 2.20494 6.35612 2.21043C6.3774 2.21591 6.39976 2.21569 6.42094 2.20978C6.93249 2.07139 7.46006 2.00109 7.99 2.00071C9.26156 2.00071 10.5081 2.38915 11.6947 3.15696C12.7794 3.85696 13.7491 4.84071 14.4997 6.00071C14.5002 6.00143 14.5005 6.00231 14.5005 6.00321C14.5005 6.00412 14.5002 6.005 14.4997 6.00571C13.9548 6.86351 13.2787 7.63045 12.4959 8.27853C12.4892 8.28405 12.4838 8.29091 12.4799 8.29867C12.4759 8.30643 12.4737 8.31491 12.4733 8.32359C12.4728 8.33226 12.4742 8.34093 12.4773 8.34905C12.4804 8.35716 12.4851 8.36454 12.4912 8.37071L13.1131 8.99228C13.1241 9.00339 13.1389 9.00997 13.1545 9.01072C13.1701 9.01147 13.1855 9.00634 13.1975 8.99634C14.0331 8.29274 14.7565 7.46572 15.3425 6.54384C15.4461 6.38139 15.5009 6.19261 15.5003 5.99994C15.4997 5.80728 15.4439 5.61882 15.3394 5.45696Z" fill="#0A2308"/>
</svg>
