<svg width="17" height="13" viewBox="0 0 17 13" fill="none" xmlns="http://www.w3.org/2000/svg">
<path d="M3.02632 0.5H13.9737C14.6437 0.5 15.2863 0.752856 15.7601 1.20294C16.2338 1.65303 16.5 2.26348 16.5 2.9V10.1C16.5 10.7365 16.2338 11.347 15.7601 11.7971C15.2863 12.2471 14.6437 12.5 13.9737 12.5H3.02632C2.3563 12.5 1.71372 12.2471 1.23994 11.7971C0.766165 11.347 0.5 10.7365 0.5 10.1V2.9C0.5 2.26348 0.766165 1.65303 1.23994 1.20294C1.71372 0.752856 2.3563 0.5 3.02632 0.5ZM3.02632 1.3C2.60526 1.3 2.23474 1.436 1.94842 1.676L8.5 5.7L15.0516 1.676C14.7653 1.436 14.3947 1.3 13.9737 1.3H3.02632ZM8.5 6.668L1.45158 2.324C1.38421 2.5 1.34211 2.7 1.34211 2.9V10.1C1.34211 10.5243 1.51955 10.9313 1.8354 11.2314C2.15125 11.5314 2.57964 11.7 3.02632 11.7H13.9737C14.4204 11.7 14.8488 11.5314 15.1646 11.2314C15.4805 10.9313 15.6579 10.5243 15.6579 10.1V2.9C15.6579 2.7 15.6158 2.5 15.5484 2.324L8.5 6.668Z" fill="#0A2308"/>
</svg>
