<svg width="26" height="22" viewBox="0 0 26 22" fill="none" xmlns="http://www.w3.org/2000/svg">
<path fill-rule="evenodd" clip-rule="evenodd" d="M0.334211 18.354L10.8728 1.16961C11.0947 0.812544 11.4071 0.517348 11.7798 0.312484C12.1524 0.107621 12.5729 0 13.0005 0C13.4282 0 13.8486 0.107621 14.2213 0.312484C14.594 0.517348 14.9064 0.812544 15.1283 1.16961L25.6669 18.354C25.884 18.7216 25.9988 19.1382 26 19.5626C26.0011 19.987 25.8885 20.4042 25.6734 20.7729C25.4582 21.1416 25.148 21.4488 24.7736 21.6641C24.3992 21.8794 23.9736 21.9952 23.5391 22H2.46194C2.02732 21.9956 1.60145 21.8801 1.22677 21.6649C0.852086 21.4498 0.541665 21.1425 0.326426 20.7736C0.111188 20.4048 -0.00135355 19.9873 1.22855e-05 19.5628C0.00137812 19.1383 0.116604 18.7215 0.334211 18.354ZM13.0005 6.68675C13.3965 6.68675 13.7763 6.84041 14.0563 7.11391C14.3364 7.38741 14.4937 7.75836 14.4937 8.14516V12.5204C14.4937 12.9072 14.3364 13.2781 14.0563 13.5516C13.7763 13.8251 13.3965 13.9788 13.0005 13.9788C12.6045 13.9788 12.2247 13.8251 11.9447 13.5516C11.6647 13.2781 11.5074 12.9072 11.5074 12.5204V8.14516C11.5074 7.75836 11.6647 7.38741 11.9447 7.11391C12.2247 6.84041 12.6045 6.68675 13.0005 6.68675ZM11.5074 16.8956C11.5074 16.5088 11.6647 16.1378 11.9447 15.8643C12.2247 15.5908 12.6045 15.4372 13.0005 15.4372H13.0125C13.4085 15.4372 13.7883 15.5908 14.0683 15.8643C14.3483 16.1378 14.5056 16.5088 14.5056 16.8956C14.5056 17.2824 14.3483 17.6533 14.0683 17.9268C13.7883 18.2003 13.4085 18.354 13.0125 18.354H13.0005C12.6045 18.354 12.2247 18.2003 11.9447 17.9268C11.6647 17.6533 11.5074 17.2824 11.5074 16.8956Z" fill="#D91E0D"/>
</svg>
