<svg width="6" height="6" viewBox="0 0 6 6" fill="none" xmlns="http://www.w3.org/2000/svg">
<path d="M3.00063 2.38754e-07C2.77592 -8.94111e-05 2.55191 0.0250682 2.33282 0.075C2.32175 0.0772978 2.31152 0.0825533 2.3032 0.0902069C2.29489 0.0978605 2.2888 0.107626 2.28559 0.118464C2.28239 0.129301 2.28218 0.140805 2.28499 0.151752C2.28781 0.162698 2.29354 0.172676 2.30157 0.180625L5.82001 3.69813C5.82796 3.70616 5.83793 3.71189 5.84888 3.7147C5.85983 3.71751 5.87133 3.71731 5.88217 3.7141C5.89301 3.71089 5.90277 3.70481 5.91043 3.69649C5.91808 3.68818 5.92333 3.67794 5.92563 3.66688C6.02581 3.22751 6.02571 2.77123 5.92535 2.33191C5.825 1.89259 5.62696 1.48152 5.34595 1.12923C5.06493 0.776945 4.70817 0.492492 4.30214 0.296998C3.89612 0.101504 3.45127 -8.67821e-06 3.00063 2.38754e-07ZM0.181257 2.30188C0.173308 2.29384 0.16333 2.28811 0.152384 2.2853C0.141438 2.28249 0.129933 2.28269 0.119096 2.2859C0.108258 2.28911 0.0984925 2.29519 0.0908389 2.30351C0.0831853 2.31182 0.0779299 2.32206 0.0756321 2.33313C-0.0376973 2.82823 -0.0234666 3.34401 0.11699 3.83212C0.257447 4.32022 0.519531 4.76468 0.87868 5.12383C1.23783 5.48298 1.68228 5.74506 2.17039 5.88552C2.6585 6.02597 3.17427 6.04021 3.66938 5.92688C3.68045 5.92458 3.69068 5.91932 3.699 5.91167C3.70732 5.90401 3.7134 5.89425 3.71661 5.88341C3.71981 5.87257 3.72002 5.86107 3.71721 5.85012C3.7144 5.83918 3.70867 5.8292 3.70063 5.82125L0.181257 2.30188Z" fill="#0A2308"/>
</svg>
