<svg width="14" height="15" viewBox="0 0 14 15" fill="none" xmlns="http://www.w3.org/2000/svg">
<path d="M3.94118 5.94444V4.38889C3.94118 2.24144 4.88865 0.5 7 0.5C9.11135 0.5 10.0588 2.24144 10.0588 4.38889V5.94444M7 10.4167V10.0278M10.0588 10.4167V10.0278M3.94118 10.4167V10.0278M0.5 12.0111V8.43333C0.5 7.56222 0.5 7.12667 0.666706 6.79456C0.813204 6.50158 1.04718 6.26334 1.33506 6.114C1.66235 5.94522 2.09059 5.94522 2.94706 5.94522H11.0529C11.9094 5.94522 12.3376 5.94522 12.6649 6.114C12.9527 6.26313 13.1867 6.50109 13.3333 6.79378C13.5 7.12667 13.5 7.56222 13.5 8.43333V12.0111C13.5 12.8822 13.5 13.3178 13.3333 13.6507C13.1867 13.9434 12.9527 14.1813 12.6649 14.3304C12.3376 14.5 11.9094 14.5 11.0529 14.5H2.94706C2.09059 14.5 1.66235 14.5 1.33506 14.3304C1.04729 14.1813 0.813333 13.9434 0.666706 13.6507C0.5 13.3186 0.5 12.883 0.5 12.0111Z" stroke="#515151" stroke-linecap="round" stroke-linejoin="round"/>
</svg>
