<svg width="26" height="25" viewBox="0 0 26 25" fill="none" xmlns="http://www.w3.org/2000/svg">
<path d="M11.0769 0C10.8219 0 10.5773 0.109747 10.397 0.305097C10.2167 0.500448 10.1154 0.765399 10.1154 1.04167C10.1154 1.31793 10.2167 1.58289 10.397 1.77824C10.5773 1.97359 10.8219 2.08333 11.0769 2.08333H20.6923C21.4574 2.08333 22.1911 2.41257 22.732 2.99862C23.273 3.58468 23.5769 4.37953 23.5769 5.20833V19.7917C23.5769 20.6205 23.273 21.4153 22.732 22.0014C22.1911 22.5874 21.4574 22.9167 20.6923 22.9167H11.0769C10.8219 22.9167 10.5773 23.0264 10.397 23.2218C10.2167 23.4171 10.1154 23.6821 10.1154 23.9583C10.1154 24.2346 10.2167 24.4996 10.397 24.6949C10.5773 24.8903 10.8219 25 11.0769 25H20.6923C21.9674 25 23.1902 24.4513 24.0919 23.4745C24.9935 22.4978 25.5 21.173 25.5 19.7917V5.20833C25.5 3.827 24.9935 2.50224 24.0919 1.52549C23.1902 0.548733 21.9674 0 20.6923 0H11.0769ZM17.5269 11.7625L11.7577 5.5125C11.6683 5.41565 11.5622 5.33882 11.4454 5.28641C11.3285 5.23399 11.2034 5.20702 11.0769 5.20702C10.9505 5.20702 10.8253 5.23399 10.7085 5.28641C10.5917 5.33882 10.4856 5.41565 10.3962 5.5125C10.3068 5.60935 10.2358 5.72433 10.1875 5.85087C10.1391 5.97741 10.1142 6.11303 10.1142 6.25C10.1142 6.38697 10.1391 6.52259 10.1875 6.64913C10.2358 6.77567 10.3068 6.89065 10.3962 6.9875L14.525 11.4583H1.46154C1.20652 11.4583 0.961951 11.5681 0.781628 11.7634C0.601305 11.9588 0.5 12.2237 0.5 12.5C0.5 12.7763 0.601305 13.0412 0.781628 13.2366C0.961951 13.4319 1.20652 13.5417 1.46154 13.5417H14.525L10.3962 18.0125C10.2156 18.2081 10.1142 18.4734 10.1142 18.75C10.1142 19.0266 10.2156 19.2919 10.3962 19.4875C10.5767 19.6831 10.8216 19.793 11.0769 19.793C11.3323 19.793 11.5771 19.6831 11.7577 19.4875L17.5269 13.2375C17.6165 13.1407 17.6875 13.0258 17.736 12.8992C17.7845 12.7727 17.8094 12.637 17.8094 12.5C17.8094 12.363 17.7845 12.2273 17.736 12.1008C17.6875 11.9742 17.6165 11.8593 17.5269 11.7625Z" fill="white"/>
</svg>
