<svg width="17" height="16" viewBox="0 0 17 16" fill="none" xmlns="http://www.w3.org/2000/svg">
<path d="M8.5 0C6.91775 0 5.37103 0.469192 4.05544 1.34824C2.73985 2.22729 1.71447 3.47672 1.10897 4.93853C0.503466 6.40034 0.34504 8.00887 0.653721 9.56072C0.962403 11.1126 1.72433 12.538 2.84315 13.6569C3.96197 14.7757 5.38743 15.5376 6.93928 15.8463C8.49113 16.155 10.0997 15.9965 11.5615 15.391C13.0233 14.7855 14.2727 13.7602 15.1518 12.4446C16.0308 11.129 16.5 9.58225 16.5 8C16.4977 5.87898 15.6541 3.8455 14.1543 2.34572C12.6545 0.845932 10.621 0.00232928 8.5 0ZM8.5 15.36C7.04433 15.36 5.62135 14.9283 4.41101 14.1196C3.20066 13.3109 2.25731 12.1614 1.70025 10.8165C1.14319 9.47168 0.997437 7.99183 1.28142 6.56413C1.56541 5.13643 2.26638 3.82501 3.2957 2.79569C4.32501 1.76638 5.63644 1.06541 7.06414 0.78142C8.49184 0.497433 9.97169 0.643185 11.3166 1.20025C12.6614 1.75731 13.8109 2.70066 14.6196 3.911C15.4283 5.12135 15.86 6.54433 15.86 8C15.8579 9.95134 15.0818 11.8222 13.702 13.202C12.3222 14.5818 10.4513 15.3579 8.5 15.36ZM11.316 10.1128C10.8726 10.7036 10.2546 11.14 9.54944 11.3601C8.84429 11.5802 8.08777 11.5729 7.38701 11.3392C6.68625 11.1055 6.07677 10.6573 5.64488 10.058C5.213 9.45868 4.9806 8.7387 4.9806 8C4.9806 7.2613 5.213 6.54132 5.64488 5.94202C6.07677 5.34273 6.68625 4.89449 7.38701 4.66079C8.08777 4.42709 8.84429 4.41978 9.54944 4.63989C10.2546 4.85999 10.8726 5.29636 11.316 5.8872C11.3413 5.92082 11.3597 5.95908 11.3701 5.99981C11.3806 6.04054 11.383 6.08293 11.3771 6.12457C11.3712 6.16621 11.3571 6.20627 11.3357 6.24248C11.3143 6.27869 11.286 6.31033 11.2524 6.3356C11.2188 6.36087 11.1805 6.37926 11.1398 6.38974C11.0991 6.40022 11.0567 6.40257 11.015 6.39667C10.9734 6.39076 10.9333 6.37671 10.8971 6.35532C10.8609 6.33393 10.8293 6.30562 10.804 6.272C10.4413 5.78843 9.93569 5.43123 9.35872 5.251C8.78176 5.07077 8.16271 5.07664 7.58927 5.26779C7.01582 5.45894 6.51706 5.82567 6.16362 6.31603C5.81019 6.8064 5.62 7.39554 5.62 8C5.62 8.60446 5.81019 9.1936 6.16362 9.68396C6.51706 10.1743 7.01582 10.5411 7.58927 10.7322C8.16271 10.9234 8.78176 10.9292 9.35872 10.749C9.93569 10.5688 10.4413 10.2116 10.804 9.728C10.855 9.6601 10.9309 9.61526 11.015 9.60333C11.0991 9.5914 11.1845 9.61337 11.2524 9.6644C11.3203 9.71543 11.3651 9.79134 11.3771 9.87543C11.389 9.95952 11.367 10.0449 11.316 10.1128Z" fill="#FFFEF8"/>
</svg>
