<svg width="16" height="16" viewBox="0 0 16 16" fill="none" xmlns="http://www.w3.org/2000/svg">
<path d="M6.08899 0C7.70389 0 9.25265 0.641141 10.3946 1.78238C11.5365 2.92362 12.178 4.47147 12.178 6.08543C12.178 7.60211 11.6253 8.98771 10.7073 10.0456L16 15.3353L15.3349 16L10.0422 10.7104C8.94168 11.6541 7.5391 12.1723 6.08899 12.1709C4.47409 12.1709 2.92533 11.5297 1.78342 10.3885C0.641517 9.24724 0 7.69939 0 6.08543C0 4.47147 0.641517 2.92362 1.78342 1.78238C2.92533 0.641141 4.47409 0 6.08899 0ZM6.08899 0.93622C4.72254 0.93622 3.41205 1.47872 2.44582 2.44439C1.47959 3.41005 0.936768 4.71977 0.936768 6.08543C0.936768 7.45109 1.47959 8.76081 2.44582 9.72647C3.41205 10.6921 4.72254 11.2346 6.08899 11.2346C6.76559 11.2346 7.43557 11.1015 8.06066 10.8427C8.68576 10.5839 9.25374 10.2046 9.73217 9.72647C10.2106 9.24832 10.5901 8.68068 10.849 8.05595C11.108 7.43122 11.2412 6.76163 11.2412 6.08543C11.2412 5.40923 11.108 4.73964 10.849 4.11491C10.5901 3.49018 10.2106 2.92254 9.73217 2.44439C9.25374 1.96624 8.68576 1.58695 8.06066 1.32818C7.43557 1.06941 6.76559 0.93622 6.08899 0.93622Z" fill="#0A2308"/>
</svg>
