<svg width="14" height="13" viewBox="0 0 14 13" fill="none" xmlns="http://www.w3.org/2000/svg">
<path d="M6.10445 0.802445C6.47215 0.0623889 7.52785 0.0623891 7.89555 0.802445L9.12813 3.28322C9.27374 3.57628 9.55353 3.77956 9.87724 3.82748L12.6175 4.23313C13.4349 4.35414 13.7612 5.35818 13.171 5.93657L11.1925 7.87542C10.9588 8.10447 10.8519 8.43338 10.9064 8.75606L11.3673 11.4875C11.5049 12.3024 10.6508 12.9229 9.91831 12.5403L7.46298 11.2578C7.17292 11.1063 6.82708 11.1063 6.53702 11.2578L4.08169 12.5403C3.34922 12.9229 2.49513 12.3024 2.63265 11.4875L3.09363 8.75606C3.14809 8.43338 3.04122 8.10447 2.8075 7.87542L0.829034 5.93657C0.238824 5.35818 0.565055 4.35414 1.38252 4.23313L4.12276 3.82748C4.44647 3.77956 4.72626 3.57628 4.87187 3.28322L6.10445 0.802445Z" fill="#1D6517"/>
</svg>
