<svg width="34" height="34" viewBox="0 0 34 34" fill="none" xmlns="http://www.w3.org/2000/svg">
<path d="M28.505 25.3539C27.8786 23.8703 26.9697 22.5227 25.8288 21.3861C24.6914 20.2463 23.344 19.3375 21.861 18.71C21.8477 18.7033 21.8345 18.7 21.8212 18.6934C23.8897 17.1992 25.2345 14.7654 25.2345 12.0195C25.2345 7.4707 21.5489 3.78516 17.0001 3.78516C12.4513 3.78516 8.76571 7.4707 8.76571 12.0195C8.76571 14.7654 10.1104 17.1992 12.179 18.6967C12.1657 18.7033 12.1524 18.7066 12.1391 18.7133C10.6516 19.3408 9.31688 20.2406 8.17137 21.3895C7.03152 22.5269 6.12273 23.8743 5.4952 25.3572C4.87869 26.809 4.54619 28.3656 4.51571 29.9426C4.51482 29.978 4.52104 30.0133 4.53399 30.0463C4.54694 30.0793 4.56637 30.1093 4.59112 30.1347C4.61587 30.1601 4.64546 30.1802 4.67812 30.194C4.71079 30.2078 4.74588 30.2149 4.78133 30.2148H6.77352C6.91961 30.2148 7.03583 30.0986 7.03915 29.9559C7.10555 27.3926 8.13485 24.992 9.95438 23.1725C11.837 21.2898 14.3372 20.2539 17.0001 20.2539C19.663 20.2539 22.1632 21.2898 24.0458 23.1725C25.8653 24.992 26.8946 27.3926 26.961 29.9559C26.9643 30.102 27.0806 30.2148 27.2266 30.2148H29.2188C29.2543 30.2149 29.2894 30.2078 29.322 30.194C29.3547 30.1802 29.3843 30.1601 29.409 30.1347C29.4338 30.1093 29.4532 30.0793 29.4662 30.0463C29.4791 30.0133 29.4853 29.978 29.4845 29.9426C29.4513 28.3555 29.1225 26.8115 28.505 25.3539ZM17.0001 17.7305C15.4761 17.7305 14.0417 17.1361 12.9626 16.057C11.8835 14.9779 11.2891 13.5436 11.2891 12.0195C11.2891 10.4955 11.8835 9.06113 12.9626 7.98203C14.0417 6.90293 15.4761 6.30859 17.0001 6.30859C18.5241 6.30859 19.9585 6.90293 21.0376 7.98203C22.1167 9.06113 22.711 10.4955 22.711 12.0195C22.711 13.5436 22.1167 14.9779 21.0376 16.057C19.9585 17.1361 18.5241 17.7305 17.0001 17.7305Z" fill="#113D0E"/>
</svg>
