<svg width="45" height="44" viewBox="0 0 45 44" fill="none" xmlns="http://www.w3.org/2000/svg">
<path d="M4.16602 5.5V4.125C3.80134 4.125 3.45161 4.26987 3.19374 4.52773C2.93588 4.78559 2.79102 5.13533 2.79102 5.5H4.16602ZM24.3327 5.5H25.7077C25.7077 5.13533 25.5628 4.78559 25.305 4.52773C25.0471 4.26987 24.6974 4.125 24.3327 4.125V5.5ZM24.3327 16.5V15.125C23.968 15.125 23.6183 15.2699 23.3604 15.5277C23.1025 15.7856 22.9577 16.1353 22.9577 16.5H24.3327ZM4.16602 6.875H24.3327V4.125H4.16602V6.875ZM22.9577 5.5V34.8333H25.7077V5.5H22.9577ZM5.54102 31.1667V5.5H2.79102V31.1667H5.54102ZM24.3327 17.875H33.4993V15.125H24.3327V17.875ZM39.4577 23.8333V31.1667H42.2077V23.8333H39.4577ZM25.7077 34.8333V16.5H22.9577V34.8333H25.7077ZM35.12 36.454C34.9072 36.6669 34.6545 36.8357 34.3765 36.9509C34.0984 37.0661 33.8003 37.1254 33.4993 37.1254C33.1984 37.1254 32.9003 37.0661 32.6222 36.9509C32.3442 36.8357 32.0915 36.6669 31.8787 36.454L29.9353 38.3973C30.8808 39.3428 32.1632 39.8739 33.5003 39.8739C34.8374 39.8739 36.1197 39.3428 37.0652 38.3973L35.12 36.454ZM31.8787 33.2127C32.0915 32.9998 32.3442 32.8309 32.6222 32.7157C32.9003 32.6005 33.1984 32.5412 33.4993 32.5412C33.8003 32.5412 34.0984 32.6005 34.3765 32.7157C34.6545 32.8309 34.9072 32.9998 35.12 33.2127L37.0634 31.2693C36.1179 30.3239 34.8355 29.7927 33.4984 29.7927C32.1613 29.7927 30.879 30.3239 29.9335 31.2693L31.8787 33.2127ZM13.12 36.454C12.9072 36.6669 12.6545 36.8357 12.3765 36.9509C12.0984 37.0661 11.8003 37.1254 11.4993 37.1254C11.1984 37.1254 10.9003 37.0661 10.6222 36.9509C10.3441 36.8357 10.0915 36.6669 9.87868 36.454L7.93535 38.3973C8.88084 39.3428 10.1632 39.8739 11.5003 39.8739C12.8374 39.8739 14.1197 39.3428 15.0652 38.3973L13.12 36.454ZM9.87868 33.2127C10.0915 32.9998 10.3441 32.8309 10.6222 32.7157C10.9003 32.6005 11.1984 32.5412 11.4993 32.5412C11.8003 32.5412 12.0984 32.6005 12.3765 32.7157C12.6545 32.8309 12.9072 32.9998 13.12 33.2127L15.0633 31.2693C14.1179 30.3239 12.8355 29.7927 11.4984 29.7927C10.1613 29.7927 8.879 30.3239 7.93352 31.2693L9.87868 33.2127ZM35.12 33.2127C35.5674 33.66 35.791 34.2448 35.791 34.8333H38.541C38.541 33.5445 38.0478 32.252 37.0652 31.2675L35.12 33.2127ZM35.791 34.8333C35.791 35.4218 35.5674 36.0067 35.12 36.454L37.0652 38.3973C37.5342 37.93 37.9044 37.3745 38.158 36.7629C38.4116 36.1512 38.5418 35.4955 38.541 34.8333H35.791ZM29.8327 33.4583H24.3327V36.2083H29.8327V33.4583ZM31.8787 36.454C31.6651 36.2418 31.4958 35.9892 31.3806 35.711C31.2654 35.4328 31.2066 35.1344 31.2077 34.8333H28.4577C28.4577 36.1222 28.9508 37.4147 29.9335 38.3992L31.8787 36.454ZM31.2077 34.8333C31.2077 34.2448 31.4313 33.66 31.8787 33.2127L29.9335 31.2693C29.4645 31.7367 29.0943 32.2922 28.8407 32.9038C28.5871 33.5155 28.4569 34.1712 28.4577 34.8333H31.2077ZM9.87868 36.454C9.66508 36.2418 9.49577 35.9892 9.38058 35.711C9.26539 35.4328 9.20662 35.1344 9.20768 34.8333H6.45768C6.45768 36.1222 6.95085 37.4147 7.93352 38.3992L9.87868 36.454ZM9.20768 34.8333C9.20768 34.2448 9.43135 33.66 9.87868 33.2127L7.93535 31.2693C7.46631 31.7367 7.0943 32.2922 6.84071 32.9038C6.58711 33.5155 6.45694 34.1712 6.45768 34.8333H9.20768ZM24.3327 33.4583H15.166V36.2083H24.3327V33.4583ZM13.12 33.2127C13.5673 33.66 13.791 34.2448 13.791 34.8333H16.541C16.541 33.5445 16.0478 32.252 15.0652 31.2675L13.12 33.2127ZM13.791 34.8333C13.791 35.4218 13.5673 36.0067 13.12 36.454L15.0633 38.3973C15.5324 37.93 15.9044 37.3745 16.158 36.7629C16.4116 36.1512 16.5418 35.4955 16.541 34.8333H13.791ZM39.4577 31.1667C39.4577 32.4317 38.431 33.4583 37.166 33.4583V36.2083C38.5032 36.2083 39.7855 35.6772 40.731 34.7317C41.6765 33.7862 42.2077 32.5038 42.2077 31.1667H39.4577ZM33.4993 17.875C35.0796 17.875 36.5951 18.5028 37.7125 19.6202C38.8299 20.7376 39.4577 22.2531 39.4577 23.8333H42.2077C42.2077 21.5237 41.2902 19.3087 39.6571 17.6756C38.0239 16.0425 35.8089 15.125 33.4993 15.125V17.875ZM2.79102 31.1667C2.79102 32.5038 3.32219 33.7862 4.26769 34.7317C5.21318 35.6772 6.49555 36.2083 7.83268 36.2083V33.4583C6.56768 33.4583 5.54102 32.4317 5.54102 31.1667H2.79102Z" fill="#0A2308"/>
</svg>
