<svg width="28" height="42" viewBox="0 0 28 42" fill="none" xmlns="http://www.w3.org/2000/svg">
<path d="M23.935 9.85448C21.6618 6.00287 18.4345 2.80193 14.5643 0.560344L13.8758 0.162109L13.1873 0.560344C9.25125 2.83183 5.98293 6.09991 3.71115 10.0357C1.43936 13.9716 0.244264 18.4363 0.246096 22.9808C0.246096 23.2768 0.251252 23.5775 0.261307 23.8745C0.398119 27.9012 1.93803 31.2894 4.71459 33.6729C6.83931 35.4969 9.56473 36.6104 12.5011 36.8761V41.6256H15.2511V19.6256H12.5008V34.1085C7.85466 33.5702 3.23045 30.2881 3.0095 23.781C3.00039 23.515 2.99575 23.2458 2.99575 22.9808C3.00397 19.0568 4.00612 15.1989 5.90868 11.767C7.81124 8.33519 10.5522 5.44125 13.8758 3.35529C17.1993 5.44129 19.9402 8.33525 21.8427 11.7671C23.7452 15.199 24.7473 19.0568 24.7555 22.9808C24.7555 23.2458 24.7508 23.515 24.7417 23.7811C24.565 28.9866 21.57 32.1279 18.0004 33.4521V36.3626C19.8528 35.8375 21.5705 34.9202 23.037 33.6728C25.8135 31.2893 27.3534 27.901 27.4903 23.8744C27.5003 23.5774 27.5055 23.2767 27.5055 22.9807C27.5079 18.3651 26.2751 13.8329 23.935 9.85448Z" fill="#0A2308"/>
</svg>
