<svg width="45" height="44" viewBox="0 0 45 44" fill="none" xmlns="http://www.w3.org/2000/svg">
<path d="M28.0007 18.3339L26.644 18.1084C26.6112 18.3053 26.6218 18.5071 26.6749 18.6996C26.728 18.892 26.8224 19.0706 26.9515 19.2229C27.0806 19.3753 27.2413 19.4976 27.4225 19.5815C27.6037 19.6655 27.801 19.7089 28.0007 19.7089V18.3339ZM7.83398 18.3339V16.9589C7.46931 16.9589 7.11957 17.1037 6.86171 17.3616C6.60385 17.6195 6.45898 17.9692 6.45898 18.3339H7.83398ZM11.5007 38.0422H32.3273V35.2922H11.5007V38.0422ZM34.5273 16.9589H28.0007V19.7089H34.5273V16.9589ZM29.3573 18.5594L30.835 9.6952L28.1217 9.24236L26.644 18.1084L29.3573 18.5594ZM27.6707 5.95886H27.2783V8.70886H27.6688L27.6707 5.95886ZM21.5565 9.02053L16.9457 15.9377L19.2337 17.463L23.8445 10.5459L21.5565 9.02053ZM15.039 16.9589H7.83398V19.7089H15.039V16.9589ZM6.45898 18.3339V33.0005H9.20898V18.3339H6.45898ZM37.2718 33.9905L39.4718 22.9905L36.7768 22.4497L34.5768 33.4497L37.2718 33.9905ZM16.9457 15.9377C16.7365 16.2517 16.453 16.5074 16.1204 16.6855C15.7878 16.8637 15.4163 16.9569 15.039 16.957V19.707C16.7257 19.707 18.2987 18.8655 19.2337 17.463L16.9457 15.9377ZM30.835 9.6952C30.9114 9.23571 30.8868 8.76326 30.763 8.31423C30.6391 7.86519 30.419 7.44851 30.1179 7.09313C29.8168 6.73775 29.4419 6.4522 29.0193 6.25633C28.5966 6.06045 28.1364 5.95895 27.6707 5.95886L27.6688 8.70886C27.7353 8.70903 27.8027 8.72364 27.863 8.75169C27.9232 8.77974 27.9766 8.82055 28.0195 8.8713C28.0624 8.92205 28.0938 8.98152 28.1114 9.0456C28.1291 9.10967 28.1325 9.17681 28.1217 9.24236L30.835 9.6952ZM34.5273 19.707C35.9756 19.707 37.0573 21.0307 36.775 22.4479L39.4718 22.9887C39.6177 22.2574 39.5996 21.501 39.4186 20.7775C39.2377 20.054 38.8986 19.3797 38.4256 18.8031C37.9527 18.2265 37.3577 17.762 36.6836 17.4431C36.0095 17.1242 35.2731 16.9588 34.5273 16.9589V19.707ZM32.3273 38.0422C33.4928 38.0424 34.6223 37.637 35.5238 36.8983C36.4253 36.1597 37.043 35.1315 37.2718 33.9887L34.5768 33.4479C34.4729 33.9678 34.1919 34.4356 33.7817 34.7716C33.3715 35.1075 32.8575 35.2927 32.3273 35.2922V38.0422ZM27.2783 5.95886C26.1465 5.95895 25.0323 6.23661 24.0345 6.7707C23.0366 7.3048 22.1861 8.07698 21.5583 9.0187L23.8445 10.5459C24.2213 9.98057 24.7319 9.51527 25.331 9.1948C25.93 8.87433 26.5989 8.70861 27.2783 8.70886V5.95886ZM11.5007 35.2922C10.2357 35.2922 9.20898 34.2655 9.20898 33.0005H6.45898C6.45898 34.3377 6.99016 35.62 7.93565 36.5655C8.88115 37.511 10.1635 38.0422 11.5007 38.0422V35.2922Z" fill="#0A2308"/>
<path d="M15.168 18.334V36.6673" stroke="#0A2308" stroke-width="1.5"/>
</svg>
