<svg width="45" height="44" viewBox="0 0 45 44" fill="none" xmlns="http://www.w3.org/2000/svg">
<path d="M43.0623 8.23181C43.0427 7.89542 42.9002 7.57796 42.6619 7.3397C42.4237 7.10143 42.1062 6.95895 41.7698 6.93931C32.8736 6.42368 25.7305 9.129 22.6608 14.1959C20.6326 17.5457 20.6361 21.614 22.6333 25.4949C21.4963 26.8481 20.6655 28.4312 20.1978 30.1356L17.4014 27.3288C18.7455 24.5221 18.6939 21.5968 17.2295 19.1665C14.9608 15.4213 9.72374 13.4138 3.22171 13.7954C2.88532 13.815 2.56786 13.9575 2.3296 14.1958C2.09133 14.4341 1.94885 14.7515 1.92921 15.0879C1.54593 21.5899 3.55514 26.827 7.3003 29.0957C8.53612 29.851 9.95635 30.2506 11.4047 30.2507C12.8104 30.2333 14.1943 29.9002 15.4541 29.2762L19.7509 33.5731V38.5007C19.7509 38.8654 19.8958 39.2151 20.1537 39.473C20.4115 39.7309 20.7613 39.8757 21.1259 39.8757C21.4906 39.8757 21.8403 39.7309 22.0982 39.473C22.3561 39.2151 22.5009 38.8654 22.5009 38.5007V33.4321C22.4947 31.2446 23.2391 29.1212 24.6098 27.4165C26.3783 28.3408 28.3397 28.8354 30.335 28.8602C32.2641 28.8665 34.1573 28.3395 35.8058 27.3374C40.8726 24.2712 43.5848 17.1281 43.0623 8.23181ZM8.71827 26.7445C6.08171 25.1477 4.58983 21.3682 4.62593 16.5007C9.49343 16.4595 13.273 17.9565 14.8697 20.5931C15.7033 21.9681 15.8391 23.5717 15.2925 25.2234L11.097 21.0279C10.8371 20.7809 10.4909 20.6453 10.1324 20.6499C9.77381 20.6545 9.43124 20.7989 9.17769 21.0525C8.92414 21.306 8.77966 21.6486 8.77507 22.0071C8.77048 22.3657 8.90614 22.7118 9.15311 22.9718L13.3486 27.1673C11.6969 27.7138 10.095 27.5781 8.71827 26.7445ZM34.3809 24.9879C32.0778 26.3818 29.3708 26.4884 26.6208 25.3317L35.8487 16.102C36.0957 15.842 36.2314 15.4958 36.2268 15.1373C36.2222 14.7788 36.0777 14.4362 35.8242 14.1826C35.5706 13.9291 35.228 13.7846 34.8695 13.78C34.5109 13.7754 34.1648 13.9111 33.9048 14.1581L24.6751 23.3757C23.5133 20.6257 23.6181 17.917 25.0189 15.6156C27.4148 11.6624 33.097 9.459 40.3725 9.62915C40.5375 16.9029 38.3375 22.592 34.3809 24.9879Z" fill="#0A2308"/>
</svg>
