<svg width="24" height="24" viewBox="0 0 24 24" fill="none" xmlns="http://www.w3.org/2000/svg">
<path d="M19 19C19.663 19 20.2989 19.2634 20.7678 19.7322C21.2366 20.2011 21.5 20.837 21.5 21.5C21.5 22.163 21.2366 22.7989 20.7678 23.2678C20.2989 23.7366 19.663 24 19 24C18.337 24 17.7011 23.7366 17.2322 23.2678C16.7634 22.7989 16.5 22.163 16.5 21.5C16.5 20.837 16.7634 20.2011 17.2322 19.7322C17.7011 19.2634 18.337 19 19 19ZM19 20.25C18.6685 20.25 18.3505 20.3817 18.1161 20.6161C17.8817 20.8505 17.75 21.1685 17.75 21.5C17.75 21.8315 17.8817 22.1495 18.1161 22.3839C18.3505 22.6183 18.6685 22.75 19 22.75C19.3315 22.75 19.6495 22.6183 19.8839 22.3839C20.1183 22.1495 20.25 21.8315 20.25 21.5C20.25 21.1685 20.1183 20.8505 19.8839 20.6161C19.6495 20.3817 19.3315 20.25 19 20.25ZM7.75 19C8.41304 19 9.04893 19.2634 9.51777 19.7322C9.98661 20.2011 10.25 20.837 10.25 21.5C10.25 22.163 9.98661 22.7989 9.51777 23.2678C9.04893 23.7366 8.41304 24 7.75 24C7.08696 24 6.45107 23.7366 5.98223 23.2678C5.51339 22.7989 5.25 22.163 5.25 21.5C5.25 20.837 5.51339 20.2011 5.98223 19.7322C6.45107 19.2634 7.08696 19 7.75 19ZM7.75 20.25C7.41848 20.25 7.10054 20.3817 6.86612 20.6161C6.6317 20.8505 6.5 21.1685 6.5 21.5C6.5 21.8315 6.6317 22.1495 6.86612 22.3839C7.10054 22.6183 7.41848 22.75 7.75 22.75C8.08152 22.75 8.39946 22.6183 8.63388 22.3839C8.8683 22.1495 9 21.8315 9 21.5C9 21.1685 8.8683 20.8505 8.63388 20.6161C8.39946 20.3817 8.08152 20.25 7.75 20.25ZM21.5 4H4.3375L7.525 11.5H17.75C18.1625 11.5 18.525 11.3 18.75 11L22.5 6C22.6625 5.7875 22.75 5.525 22.75 5.25C22.75 4.91848 22.6183 4.60054 22.3839 4.36612C22.1495 4.1317 21.8315 4 21.5 4ZM17.75 12.75H7.5875L6.625 14.7L6.5 15.25C6.5 15.5815 6.6317 15.8995 6.86612 16.1339C7.10054 16.3683 7.41848 16.5 7.75 16.5H21.5V17.75H7.75C7.08696 17.75 6.45107 17.4866 5.98223 17.0178C5.51339 16.5489 5.25 15.913 5.25 15.25C5.24963 14.8259 5.35717 14.4086 5.5625 14.0375L6.4625 12.2L1.925 1.5H0.25V0.25H2.75L3.8125 2.75H21.5C22.163 2.75 22.7989 3.01339 23.2678 3.48223C23.7366 3.95107 24 4.58696 24 5.25C24 5.875 23.7875 6.4 23.4375 6.825L19.8 11.6875C19.35 12.325 18.6 12.75 17.75 12.75Z" fill="black"/>
</svg>
