<svg width="44" height="44" viewBox="0 0 44 44" fill="none" xmlns="http://www.w3.org/2000/svg">
<path fill-rule="evenodd" clip-rule="evenodd" d="M22.9031 32.1701L22.8867 32.1731L22.7806 32.2254L22.7508 32.2314L22.7299 32.2254L22.6238 32.1731C22.6079 32.1681 22.5959 32.1706 22.5879 32.1806L22.582 32.1955L22.5566 32.8349L22.564 32.8647L22.579 32.8841L22.7343 32.9947L22.7567 33.0007L22.7747 32.9947L22.93 32.8841L22.9479 32.8602L22.9539 32.8349L22.9285 32.197C22.9245 32.1811 22.9161 32.1721 22.9031 32.1701ZM23.299 32.0013L23.2796 32.0043L23.0032 32.1432L22.9883 32.1582L22.9838 32.1746L23.0107 32.8169L23.0181 32.8349L23.0301 32.8453L23.3303 32.9842C23.3493 32.9892 23.3637 32.9852 23.3737 32.9723L23.3796 32.9514L23.3288 32.0342C23.3239 32.0163 23.3139 32.0053 23.299 32.0013ZM22.2309 32.0043C22.2244 32.0003 22.2165 31.999 22.209 32.0007C22.2015 32.0024 22.1949 32.0069 22.1906 32.0133L22.1816 32.0342L22.1309 32.9514C22.1319 32.9693 22.1403 32.9812 22.1563 32.9872L22.1787 32.9842L22.4789 32.8453L22.4938 32.8334L22.4998 32.8169L22.5252 32.1746L22.5207 32.1567L22.5058 32.1418L22.2309 32.0043Z" fill="#0D2D0A"/>
<path fill-rule="evenodd" clip-rule="evenodd" d="M22.0184 23.0938L30.4685 31.544C30.7502 31.8161 31.1276 31.9666 31.5192 31.9632C31.9109 31.9598 32.2855 31.8027 32.5625 31.5258C32.8394 31.2488 32.9965 30.8742 32.9999 30.4825C33.0033 30.0909 32.8528 29.7135 32.5807 29.4318L24.1305 20.9816L32.5807 12.5315C32.8528 12.2498 33.0033 11.8724 32.9999 11.4808C32.9965 11.0891 32.8394 10.7145 32.5625 10.4375C32.2855 10.1606 31.9109 10.0035 31.5192 10.0001C31.1276 9.99665 30.7502 10.1472 30.4685 10.4193L22.0184 18.8695L13.5682 10.4193C13.2852 10.1539 12.9101 10.0091 12.5222 10.0154C12.1343 10.0217 11.764 10.1786 11.4898 10.4531C11.2156 10.7275 11.0589 11.0978 11.0528 11.4857C11.0468 11.8736 11.1919 12.2487 11.4575 12.5315L19.9062 20.9816L11.456 29.4318C11.3134 29.5696 11.1996 29.7344 11.1213 29.9167C11.043 30.0989 11.0018 30.2949 11.0001 30.4933C10.9983 30.6916 11.0361 30.8883 11.1112 31.0719C11.1863 31.2555 11.2973 31.4222 11.4375 31.5625C11.5778 31.7027 11.7445 31.8137 11.9281 31.8888C12.1117 31.9639 12.3084 32.0017 12.5067 31.9999C12.7051 31.9982 12.9011 31.957 13.0833 31.8787C13.2656 31.8004 13.4304 31.6866 13.5682 31.544L22.0184 23.0938Z" fill="#0D2D0A"/>
</svg>
