<svg width="23" height="22" viewBox="0 0 23 22" fill="none" xmlns="http://www.w3.org/2000/svg">
<path d="M8.875 0.5C11.0299 0.5 13.0965 1.35602 14.6202 2.87976C16.144 4.40349 17 6.47012 17 8.625C17 10.65 16.2625 12.5 15.0375 13.9125L22.1 20.975L21.2125 21.8625L14.15 14.8C12.6816 16.0601 10.81 16.752 8.875 16.75C6.72012 16.75 4.65349 15.894 3.12976 14.3702C1.60602 12.8465 0.75 10.7799 0.75 8.625C0.75 6.47012 1.60602 4.40349 3.12976 2.87976C4.65349 1.35602 6.72012 0.5 8.875 0.5ZM8.875 1.75C7.05164 1.75 5.30295 2.47433 4.01364 3.76364C2.72433 5.05295 2 6.80164 2 8.625C2 10.4484 2.72433 12.197 4.01364 13.4864C5.30295 14.7757 7.05164 15.5 8.875 15.5C9.77784 15.5 10.6718 15.3222 11.5059 14.9767C12.3401 14.6312 13.098 14.1248 13.7364 13.4864C14.3748 12.848 14.8812 12.0901 15.2267 11.2559C15.5722 10.4218 15.75 9.52784 15.75 8.625C15.75 7.72216 15.5722 6.82816 15.2267 5.99405C14.8812 5.15994 14.3748 4.40204 13.7364 3.76364C13.098 3.12524 12.3401 2.61883 11.5059 2.27333C10.6718 1.92783 9.77784 1.75 8.875 1.75Z" fill="black"/>
</svg>
